<svg xmlns="http://www.w3.org/2000/svg" viewBox="0 0 100 100">
  <ellipse cx="50" cy="35" rx="22" ry="28" fill="#4A5568" />

  <rect x="43" y="58" width="14" height="12" fill="#4A5568" />

  <path d="M 30 70 Q 50 75 70 70 L 75 85 Q 50 90 25 85 Z" fill="#4A5568" />

  <ellipse cx="42" cy="28" rx="3" ry="4" fill="#1F2937" />
  <ellipse cx="58" cy="28" rx="3" ry="4" fill="#1F2937" />

  <ellipse cx="43" cy="27" rx="1" ry="1.5" fill="white" opacity="0.8" />
  <ellipse cx="59" cy="27" rx="1" ry="1.5" fill="white" opacity="0.8" />

  <path d="M 38 24 Q 42 23 45 24" stroke="#1F2937" stroke-width="1.5" fill="none" stroke-linecap="round" />
  <path d="M 55 24 Q 58 23 62 24" stroke="#1F2937" stroke-width="1.5" fill="none" stroke-linecap="round" />

  <ellipse cx="50" cy="45" rx="24" ry="14" fill="#B45309" />

  <ellipse cx="50" cy="40" rx="24" ry="3" fill="#78350F" />

  <ellipse cx="50" cy="50" rx="22" ry="2" fill="#78350F" opacity="0.6" />

  <circle cx="73" cy="45" r="4.5" fill="#78350F" />
  <circle cx="76" cy="43" r="3.5" fill="#B45309" />

  <circle cx="27" cy="45" r="2" fill="#78350F" opacity="0.7" />
</svg>